<svg width="24" height="24" viewBox="0 0 24 24" fill="none" xmlns="http://www.w3.org/2000/svg">
<mask id="mask0" mask-type="alpha" maskUnits="userSpaceOnUse" x="2" y="2" width="20" height="20">
<path d="M7.91692 2H16.0831C18.1408 2 18.8869 2.21385 19.6392 2.61615C20.3908 3.01846 20.9815 3.60846 21.3838 4.36077C21.7862 5.11308 22 5.85923 22 7.91692V16.0831C22 18.1408 21.7862 18.8869 21.3838 19.6392C20.9815 20.3908 20.3915 20.9815 19.6392 21.3838C18.8869 21.7862 18.1408 22 16.0831 22H7.91692C5.85923 22 5.11308 21.7862 4.36077 21.3838C3.60923 20.9815 3.01846 20.3915 2.61615 19.6392C2.21385 18.8869 2 18.1408 2 16.0831V7.91692C2 5.85923 2.21385 5.11308 2.61615 4.36077C3.01846 3.60923 3.60846 3.01846 4.36077 2.61615C5.11308 2.21385 5.85923 2 7.91692 2Z" fill="white"/>
</mask>
<g mask="url(#mask0)">
<path d="M7.91692 2H16.0831C18.1408 2 18.8869 2.21385 19.6392 2.61615C20.3908 3.01846 20.9815 3.60846 21.3838 4.36077C21.7862 5.11308 22 5.85923 22 7.91692V16.0831C22 18.1408 21.7862 18.8869 21.3838 19.6392C20.9815 20.3908 20.3915 20.9815 19.6392 21.3838C18.8869 21.7862 18.1408 22 16.0831 22H7.91692C5.85923 22 5.11308 21.7862 4.36077 21.3838C3.60923 20.9815 3.01846 20.3915 2.61615 19.6392C2.21385 18.8869 2 18.1408 2 16.0831V7.91692C2 5.85923 2.21385 5.11308 2.61615 4.36077C3.01846 3.60923 3.60846 3.01846 4.36077 2.61615C5.11308 2.21385 5.85923 2 7.91692 2Z" fill="#AD2070"/>
<path d="M15.9708 5.8457C14.34 5.8457 13.0192 7.08878 13.0192 8.62186C13.0192 10.1557 14.3408 11.3988 15.9708 11.3988C17.6015 11.3988 18.9231 10.1557 18.9231 8.62186C18.9231 7.08878 17.6015 5.8457 15.9708 5.8457ZM15.9708 9.80724C15.2792 9.80724 14.7169 9.27801 14.7169 8.62801C14.7169 7.97724 15.2792 7.44878 15.9708 7.44878C16.6631 7.44878 17.2246 7.97724 17.2246 8.62801C17.2246 9.27801 16.6631 9.80724 15.9708 9.80724ZM12.1669 11.4042H10.4684V7.9134C10.4684 7.65186 10.2454 7.4434 9.96844 7.4434C9.68998 7.4434 9.46844 7.65186 9.46844 7.9134V11.4042H7.76921V7.9134C7.76921 7.65186 7.54614 7.4434 7.26921 7.4434C6.99075 7.4434 6.76844 7.65186 6.76844 7.9134V11.4042H5.0769V7.93109C5.0769 6.78109 6.07152 5.8457 7.29383 5.8457C7.79383 5.8457 8.25152 6.00263 8.62152 6.26416C9.04921 5.98416 9.49229 5.8457 9.94921 5.8457C11.1723 5.8457 12.1669 6.78109 12.1669 7.93032V11.4042ZM15.9708 12.6011C14.34 12.6011 13.0192 13.8434 13.0192 15.3772C13.0192 16.9103 14.3408 18.1534 15.9708 18.1534C17.6015 18.1534 18.9231 16.9103 18.9231 15.3765C18.9231 13.8434 17.6015 12.6003 15.9708 12.6003V12.6011ZM9.94998 12.5942C11.1731 12.5942 12.1669 13.5295 12.1669 14.6788V18.1534H10.4684V14.6626C10.4684 14.4011 10.2454 14.1926 9.96844 14.1926C9.68998 14.1926 9.46844 14.4019 9.46844 14.6626V18.1534H7.76921V14.6626C7.76921 14.4011 7.54614 14.1926 7.26921 14.1926C6.99075 14.1926 6.76844 14.4019 6.76844 14.6626V18.1534H5.0769V14.6803C5.0769 13.5303 6.07152 12.5957 7.29383 12.5957C7.79383 12.5957 8.25152 12.7519 8.62152 13.0134C9.04921 12.7342 9.49229 12.5949 9.94921 12.5949L9.94998 12.5942ZM15.9708 14.2042C16.6631 14.2042 17.2246 14.7326 17.2246 15.3826C17.2246 16.0334 16.6631 16.5619 15.9708 16.5619C15.2792 16.5619 14.7169 16.0334 14.7169 15.3826C14.7169 14.7326 15.2792 14.2042 15.9708 14.2042Z" fill="white"/>
</g>
</svg>
