<svg width="24" height="24" viewBox="0 0 24 24" fill="none" xmlns="http://www.w3.org/2000/svg">
<path d="M5.72683 5.28067L20.3901 3.13769C19.5708 2.42875 18.5035 2 17.3385 2H6.66239C4.08364 2 2 4.08833 2 6.66083V17.3334C2 19.6473 3.68785 21.5709 5.89777 21.9334L3.96352 7.66074C3.79873 6.51766 4.60108 5.44617 5.72837 5.28067H5.72683Z" fill="#008FE5"/>
<path d="M20.3902 3.1377L5.727 5.28068C4.59971 5.44617 3.79736 6.51766 3.96215 7.66074L5.89717 21.9334C6.14434 21.9719 6.40306 21.9996 6.66179 21.9996H17.3387C19.9174 21.9996 22.0011 19.9113 22.0011 17.3388V6.66084C22.0011 5.25374 21.3797 3.9952 20.3902 3.1377V3.1377Z" fill="white"/>
<path d="M20.3901 3.1377L20.34 3.14847C21.3464 4.0283 21.9509 5.32532 21.9509 6.66084V17.3172C21.9509 19.8667 19.8726 21.9442 17.3224 21.9442H6.65624C6.41445 21.9442 6.13417 21.9173 5.88623 21.8788L5.89239 21.9334C6.15111 21.9773 6.39828 21.9996 6.65085 21.9996H17.3108C19.895 21.9996 21.9948 19.8998 21.9948 17.3172V6.66084C22.0009 5.29761 21.4173 4.0283 20.3901 3.1377V3.1377Z" fill="#C7C7C7" stroke="#C7C7C7" stroke-width="0.2"/>
<path d="M14.4579 8.63895C14.3639 8.54581 14.26 8.49578 14.1114 8.49578C13.9135 8.49578 13.7649 8.58969 13.6771 8.78751C13.4792 8.5512 13.2043 8.44113 12.8578 8.44113C12.4397 8.44113 12.0939 8.60585 11.8029 8.91375C11.5103 9.24321 11.3848 9.62269 11.3848 10.0792C11.3848 10.5348 11.5272 10.9305 11.8021 11.2438C12.0939 11.574 12.4397 11.7164 12.8578 11.7164C13.2043 11.7164 13.4738 11.6071 13.6771 11.37C13.7702 11.5686 13.9135 11.6618 14.1114 11.6618C14.2538 11.6618 14.3639 11.6071 14.4579 11.5186C14.551 11.4308 14.5841 11.3208 14.5841 11.1722V8.93608C14.6003 8.8591 14.5456 8.73209 14.4579 8.63895ZM13.4738 10.6557C13.3637 10.7989 13.1989 10.8758 13.001 10.8758C12.8031 10.8758 12.6376 10.8043 12.5282 10.6557C12.4181 10.5133 12.3465 10.3262 12.3465 10.0899C12.3465 9.86978 12.4012 9.68889 12.5282 9.54572C12.6376 9.40254 12.8031 9.32634 13.001 9.32634C13.1989 9.32634 13.3629 9.39716 13.4738 9.54572C13.5831 9.68889 13.6547 9.87517 13.6547 10.0899C13.6386 10.3101 13.5831 10.5133 13.4738 10.6557ZM15.6729 11.5463C15.579 11.6394 15.475 11.6895 15.3264 11.6895C15.1832 11.6895 15.0731 11.634 14.9799 11.5463C14.8868 11.4532 14.8536 11.3485 14.8536 11.1999V7.19875C14.8536 7.07251 14.8921 6.96244 14.9799 6.85236C15.0731 6.75999 15.1778 6.70996 15.3264 6.70996C15.4689 6.70996 15.579 6.76461 15.6729 6.85313C15.7653 6.94627 15.7992 7.05096 15.7992 7.19952V11.1999C15.7992 11.3485 15.7661 11.4585 15.6729 11.5463ZM18.8176 8.92992C18.5096 8.60047 18.1246 8.45729 17.6518 8.45729C17.1791 8.45729 16.7994 8.62279 16.4861 8.92992C16.195 9.23782 16.0302 9.63886 16.0302 10.1123C16.0302 10.5849 16.1727 10.9636 16.4861 11.2938C16.7779 11.6017 17.1791 11.7664 17.6518 11.7664C18.1246 11.7664 18.5042 11.6009 18.8169 11.2938C19.1087 10.9859 19.2519 10.5849 19.2519 10.1284C19.2735 9.63886 19.1303 9.23782 18.8169 8.92992H18.8176ZM18.1462 10.6557C18.0368 10.7989 17.8713 10.8758 17.6734 10.8758C17.4755 10.8758 17.3115 10.8043 17.2006 10.6557C17.0913 10.5133 17.0197 10.3262 17.0197 10.0899C17.0197 9.86978 17.0743 9.68889 17.2006 9.54572C17.3107 9.40254 17.4755 9.32634 17.6734 9.32634C17.8713 9.32634 18.0368 9.39716 18.1462 9.54572C18.2563 9.68889 18.3279 9.87517 18.3279 10.0899C18.3117 10.3101 18.2563 10.5133 18.1462 10.6557Z" fill="#008FE5"/>
<path d="M10.8567 8.56794C11.1862 8.1338 11.368 7.84283 11.368 7.69427C11.368 7.34788 11.1485 7.16699 10.7135 7.16699H8.40497C8.22248 7.16699 8.07464 7.20548 7.98686 7.29323C7.89369 7.38637 7.84364 7.49106 7.84364 7.62268C7.84364 7.76586 7.89908 7.87593 7.98686 7.95291C8.0808 8.04528 8.22325 8.07915 8.40497 8.07915H9.98811L7.95375 10.6948C7.82747 10.8602 7.75586 11.025 7.75586 11.1512C7.75586 11.5307 8.00919 11.717 8.52048 11.717H10.9006C11.2802 11.717 11.4673 11.5523 11.4673 11.2444C11.4673 10.9149 11.2856 10.7717 10.9006 10.7717H9.15265L10.8559 8.56794H10.8567Z" fill="#008FE5"/>
<path d="M9.72406 14.2227H9.125V15.4601H9.72406C9.90579 15.4601 10.0544 15.4046 10.1583 15.2783C10.2685 15.1682 10.3239 15.0034 10.3239 14.8441C10.3239 14.6623 10.2685 14.5145 10.1583 14.4098C10.0544 14.2781 9.91195 14.2227 9.72406 14.2227ZM12.6932 15.3661C12.5115 15.3661 12.3629 15.4377 12.2589 15.564C12.1488 15.7072 12.0941 15.872 12.0941 16.0753C12.0941 16.2793 12.148 16.4549 12.2589 16.5866C12.369 16.7298 12.5115 16.7845 12.6932 16.7845C12.8742 16.7845 13.0228 16.7136 13.1275 16.5866C13.2376 16.4441 13.2923 16.2786 13.2923 16.0753C13.2923 15.8774 13.2376 15.6964 13.1275 15.564C13.0174 15.4377 12.8742 15.3661 12.6932 15.3661V15.3661Z" fill="#04BE04"/>
<path d="M16.8774 12.458H8.2718C7.98151 12.458 7.74512 12.6943 7.74512 12.9861V18.0202C7.74512 18.3112 7.98151 18.5475 8.27257 18.5475H15.0563C14.9855 18.4759 14.947 18.4051 14.947 18.3112C14.947 18.2396 14.9639 18.1688 15.0017 18.0749L15.332 17.3667L14.4411 15.146C14.4249 15.0906 14.4026 15.0197 14.4026 14.9481C14.4026 14.8542 14.4411 14.7665 14.5289 14.7118C14.6005 14.6402 14.6944 14.6018 14.7822 14.6018C14.9801 14.6018 15.1118 14.6949 15.1834 14.8927L15.7278 16.4045L16.3107 14.8927C16.3823 14.7118 16.5086 14.6018 16.7118 14.6018C16.805 14.6018 16.8936 14.6402 16.9644 14.7118C17.036 14.7834 17.0915 14.8542 17.0915 14.9481C17.0915 15.0197 17.0745 15.0906 17.053 15.146L15.7439 18.3281C15.7054 18.4213 15.6731 18.4928 15.6177 18.5475H16.8712C17.1623 18.5475 17.3987 18.3112 17.3987 18.0202V12.9861C17.3987 12.6782 17.1623 12.458 16.8766 12.458H16.8774ZM10.802 15.838C10.5271 16.0912 10.186 16.2013 9.78486 16.2013H9.13036V17.1466C9.13036 17.289 9.09186 17.399 9.00408 17.476C8.93247 17.5476 8.82236 17.6022 8.69607 17.6022C8.56979 17.6022 8.45968 17.5638 8.38807 17.476C8.31723 17.4044 8.26179 17.2782 8.26179 17.1466V13.8759C8.26179 13.568 8.40501 13.4202 8.71841 13.4202H9.75791C10.1914 13.4202 10.5379 13.5464 10.829 13.7997C11.1039 14.0522 11.2471 14.3985 11.2471 14.7996C11.2363 15.256 11.0931 15.5855 10.802 15.8387V15.838ZM14.167 17.1296C14.167 17.2559 14.1285 17.3498 14.0399 17.4375C13.9467 17.5307 13.8582 17.5638 13.7319 17.5638C13.551 17.5638 13.4024 17.4706 13.3146 17.289C13.1329 17.5091 12.8803 17.6192 12.55 17.6192C12.1711 17.6192 11.8415 17.476 11.5874 17.185C11.3349 16.8933 11.187 16.5308 11.187 16.0966C11.187 15.6625 11.3133 15.3161 11.5874 15.0082C11.8415 14.7172 12.1711 14.574 12.55 14.574C12.8803 14.574 13.1167 14.6841 13.3146 14.9043C13.4077 14.7226 13.534 14.6295 13.7319 14.6295C13.8582 14.6295 13.9683 14.668 14.0399 14.7557C14.1331 14.8489 14.1662 14.9366 14.1662 15.0636V17.1296H14.167Z" fill="#04BE04"/>
</svg>
